<svg version="1.1" viewBox="0.0 0.0 263.0314960629921 245.75853018372703" fill="none" stroke="none" stroke-linecap="square" stroke-miterlimit="10" xmlns:xlink="http://www.w3.org/1999/xlink" xmlns="http://www.w3.org/2000/svg"><clipPath id="p.0"><path d="m0 0l263.0315 0l0 245.75853l-263.0315 0l0 -245.75853z" clip-rule="nonzero"/></clipPath><g clip-path="url(#p.0)"><path fill="#000000" fill-opacity="0.0" d="m0 0l263.0315 0l0 245.75853l-263.0315 0z" fill-rule="evenodd"/><path fill="#0b1120" d="m0 40.678757l0 0c0 -22.467754 18.213713 -40.68147 40.681465 -40.68147l182.00714 0c10.789398 0 21.136887 4.2860703 28.766144 11.915325c7.629257 7.6292553 11.915329 17.976746 11.915329 28.766142l0 162.72098c0 22.467758 -18.213715 40.681473 -40.681473 40.681473l-182.00714 0c-22.467752 0 -40.681465 -18.213715 -40.681465 -40.681473z" fill-rule="evenodd"/><path stroke="#000000" stroke-width="1.0" stroke-linejoin="round" stroke-linecap="butt" d="m0 40.678757l0 0c0 -22.467754 18.213713 -40.68147 40.681465 -40.68147l182.00714 0c10.789398 0 21.136887 4.2860703 28.766144 11.915325c7.629257 7.6292553 11.915329 17.976746 11.915329 28.766142l0 162.72098c0 22.467758 -18.213715 40.681473 -40.681473 40.681473l-182.00714 0c-22.467752 0 -40.681465 -18.213715 -40.681465 -40.681473z" fill-rule="evenodd"/><path fill="#22d3ee" d="m142.7865 130.19885l68.50394 70.10484l-8.409439 9.6141815l-68.50394 -70.10484z" fill-rule="evenodd"/><path stroke="#ffffff" stroke-width="1.0" stroke-linejoin="round" stroke-linecap="butt" d="m142.7865 130.19885l68.50394 70.10484l-8.409439 9.6141815l-68.50394 -70.10484z" fill-rule="evenodd"/><path fill="#22d3ee" d="m39.115486 93.938774l0 0c0 -31.669636 25.149612 -57.342953 56.173225 -57.342953l0 0c14.898071 0 29.185951 6.0414734 39.720474 16.795364c10.534515 10.753887 16.452759 25.33929 16.452759 40.54759l0 0c0 31.66964 -25.149612 57.342964 -56.173233 57.342964l0 0c-31.023613 0 -56.173225 -25.673325 -56.173225 -57.342964z" fill-rule="evenodd"/><path stroke="#ffffff" stroke-width="1.0" stroke-linejoin="round" stroke-linecap="butt" d="m39.115486 93.938774l0 0c0 -31.669636 25.149612 -57.342953 56.173225 -57.342953l0 0c14.898071 0 29.185951 6.0414734 39.720474 16.795364c10.534515 10.753887 16.452759 25.33929 16.452759 40.54759l0 0c0 31.66964 -25.149612 57.342964 -56.173233 57.342964l0 0c-31.023613 0 -56.173225 -25.673325 -56.173225 -57.342964z" fill-rule="evenodd"/></g></svg>